<svg xmlns="http://www.w3.org/2000/svg" width="185" height="25" viewBox="0 0 185 25"><path fill="#F26F21" d="M42.256 6.463c-.001-.056-.095-.078-.095-.078-1.636-.48-3.012-1.786-3.426-3.322l-.076-.249s-.013-.066-.06-.066c-.048 0-.061.066-.061.066l-.076.25c-.414 1.536-1.791 2.842-3.426 3.322 0 0-.095.021-.095.077v.001c0 .056.095.077.095.077 1.635.48 3.012 1.786 3.426 3.322l.076.25s.013.066.061.066c.048-.001.06-.066.06-.066l.076-.25c.414-1.536 1.79-2.842 3.426-3.322 0 0 .095-.022.095-.078zm3.403-4.397c-.001-.029-.049-.04-.049-.04-.846-.248-1.557-.923-1.771-1.717l-.04-.129s-.006-.034-.031-.034-.031.034-.031.034l-.039.129c-.214.794-.926 1.469-1.771 1.717 0 0-.049.011-.049.04s.049.04.049.04c.846.248 1.557.923 1.771 1.717l.039.129s.006.034.031.034.031-.034.031-.034l.039-.129c.214-.794.926-1.469 1.771-1.717 0 0 .049-.011.05-.04z"/><path fill="#FFF" d="M8.827 20.316c-.427.906-1.28 1.492-2.487 1.492-1.492 0-2.966-1.012-2.966-3.232 0-1.901 1.137-3.304 2.913-3.304 1.226 0 2.078.55 2.593 1.616.036.089.053.124.159.089l2.646-1.03c.071-.036.142-.107.053-.319-.799-1.812-2.593-3.392-5.524-3.392C2.735 12.235 0 14.917 0 18.558c0 3.41 2.522 6.269 6.304 6.269 2.77 0 4.76-1.74 5.559-3.676.035-.107.018-.196-.16-.231l-2.664-.728c-.141-.036-.159.035-.212.124zm16.402 1.794c.604 1.74 2.113 2.717 4.529 2.717 2.788 0 5.044-1.207 5.044-3.942 0-2.22-1.315-3.428-3.588-3.747-.231-.036-.426-.071-.586-.089-1.598-.267-2.255-.604-2.255-1.421 0-.657.391-1.119 1.634-1.119.924 0 1.741.693 1.989 1.403.036.089.089.124.213.071l2.078-.835c.107-.036.178-.106.124-.302-.462-1.492-1.918-2.611-4.28-2.611-3.144 0-4.724 1.616-4.724 3.925 0 2.202 1.492 3.41 3.641 3.623.124.018.302.036.427.053 1.634.195 2.149.657 2.149 1.385 0 .817-.568 1.19-1.794 1.19-1.119 0-1.936-.781-2.149-1.439-.036-.142-.036-.142-.195-.088l-2.186.888c-.124.053-.142.142-.071.338zm15.003-9.466c0-.142-.018-.16-.178-.16h-2.948c-.159 0-.159-.018-.159.16v11.721c0 .178 0 .16.159.16h2.948c.16 0 .178-.018.178-.16V12.644zm12.907-.125c-.024-.026-.065-.035-.147-.035h-2.699c-.142 0-.142.018-.142.213v5.328s-4.351-4.031-6.89-5.843c-.056-.033-.117-.046-.155-.007v12.282a.164.164 0 00.137.068h2.682c.16 0 .16 0 .16-.16V18.93s4.191 3.854 6.873 5.861c.102.075.155.078.183.036V12.519h-.002zm26.431 2.523l3.037.035c.107 0 .124-.017.124-.124v-2.291c0-.142-.018-.178-.142-.178h-9.395c-.142 0-.142.036-.142.178v2.291c0 .107 0 .124.124.124l3.126-.035v9.324c0 .178 0 .16.177.16h2.93c.142 0 .16-.018.16-.16l.001-9.324zm62.094 4.492c-.213 1.261-1.012 2.256-2.539 2.256-1.812 0-2.966-1.207-2.966-3.232 0-1.936 1.083-3.268 3.019-3.268 1.172 0 1.989.586 2.379 1.385.053.107.142.195.267.142l2.61-.995c.124-.035.107-.159.036-.319-.853-1.83-2.468-3.268-5.328-3.268-3.535 0-6.305 2.54-6.305 6.305 0 3.73 2.415 6.287 6.216 6.287 1.758 0 2.522-.568 3.25-1.207l1.972 1.154c.053.018.106.053.177.053.16 0 .16-.071.16-.071v-5.275c0-.088-.036-.124-.142-.124h-2.664c-.071 0-.124.071-.142.177zm29.268-7.021c-.025-.02-.064-.029-.137-.029h-2.699c-.142 0-.142.018-.142.213v5.328s-4.351-4.031-6.891-5.843c-.06-.036-.126-.05-.164.003v12.248c.026.049.068.093.146.093h2.682c.159 0 .159 0 .159-.16v-5.435s4.192 3.854 6.873 5.861c.093.067.143.076.173.047V12.513zm14.001 11.763c-1.953-3.925-4.369-8.862-6.073-12.183-.018-.036-.409-.053-.427 0-1.616 3.019-4.191 8.258-6.038 12.183-.071.178-.053.249.089.249h2.948c.231 0 .267-.053.32-.195.178-.427.408-1.03.622-1.527h4.298c.178.444.444 1.101.657 1.581.053.124.124.142.213.142h3.321c.159-.001.176-.019.07-.25zm-5.203-3.783h-2.469l1.207-2.699 1.262 2.699zm-21.01-1.953c0-3.481-2.717-6.305-6.304-6.305s-6.305 2.824-6.305 6.305 2.718 6.287 6.305 6.287c3.587 0 6.304-2.806 6.304-6.287zm-3.321 0c0 1.829-1.101 3.25-2.984 3.25-1.918 0-2.984-1.421-2.984-3.25 0-1.83 1.065-3.268 2.984-3.268 1.883 0 2.984 1.439 2.984 3.268zm-22.811 5.985c.159 0 .177-.018.071-.249-1.954-3.925-4.369-8.862-6.074-12.183-.018-.036-.409-.053-.426 0-1.616 3.019-4.192 8.258-6.038 12.183-.071.178-.053.249.089.249h2.948c.231 0 .266-.053.319-.195.178-.427.409-1.03.622-1.527h4.298c.178.444.444 1.101.658 1.581.053.124.124.142.213.142l3.32-.001zm-5.133-4.032h-2.469l1.207-2.699 1.262 2.699zm-8.329 3.552c-1.03-1.67-2.042-3.463-2.504-4.191 1.083-.515 1.652-1.67 1.652-3.304 0-2.184-1.456-4.067-4.192-4.067h-5.505c-.053 0-.142-.018-.142.16v11.721c0 .178 0 .16.142.16h2.913c.124 0 .142-.018.142-.16v-3.357l2.042-.036s1.296 2.043 1.9 3.197c.16.32.231.355.373.355h3.143c.196.002.249-.122.036-.478zm-4.227-7.263c0 1.03-.533 1.741-1.492 1.776l-1.776.053V15.13h1.758c1.031 0 1.51.71 1.51 1.652zm-8.226 7.263c-1.03-1.67-2.042-3.463-2.504-4.191 1.084-.515 1.652-1.67 1.652-3.304 0-2.184-1.456-4.067-4.191-4.067h-5.506c-.053 0-.142-.018-.142.16v11.721c0 .178 0 .16.142.16h2.913c.124 0 .142-.018.142-.16v-3.357l2.042-.036s1.297 2.043 1.901 3.197c.16.32.231.355.373.355h3.144c.194.002.247-.122.034-.478zm-4.227-7.263c0 1.03-.533 1.741-1.492 1.776l-1.776.053V15.13h1.758c1.03 0 1.51.71 1.51 1.652zm-7.991 7.743c.16 0 .178-.018.071-.249-1.953-3.925-4.369-8.862-6.074-12.183-.018-.036-.408-.053-.426 0-1.616 3.019-4.191 8.258-6.038 12.183-.071.178-.053.249.089.249h2.948c.231 0 .267-.053.32-.195.177-.427.408-1.03.622-1.527h4.298c.178.444.444 1.101.657 1.581.053.124.124.142.213.142l3.32-.001zm-5.133-4.032h-2.468l1.207-2.699 1.261 2.699zM67.938 18.54c0-3.481-2.718-6.305-6.305-6.305-3.587 0-6.304 2.824-6.304 6.305s2.717 6.287 6.304 6.287c3.588 0 6.305-2.806 6.305-6.287zm-3.321 0c0 1.829-1.101 3.25-2.984 3.25-1.918 0-2.984-1.421-2.984-3.25 0-1.83 1.066-3.268 2.984-3.268 1.883 0 2.984 1.439 2.984 3.268zm-40.104 5.985c.16 0 .178-.018.071-.249-1.953-3.925-4.369-8.862-6.074-12.183-.018-.036-.408-.053-.426 0-1.616 3.019-4.191 8.258-6.038 12.183-.071.178-.053.249.089.249h2.948c.231 0 .267-.053.319-.195.178-.427.409-1.03.622-1.527h4.298c.177.444.444 1.101.657 1.581.053.124.124.142.213.142l3.321-.001zm-5.132-4.032h-2.469l1.208-2.699 1.261 2.699z"/></svg>